<svg width="17" height="15" viewBox="0 0 17 15" fill="none" xmlns="http://www.w3.org/2000/svg">
<path d="M2.93147 2.62884C3.48268 3.00786 3.68945 2.97894 4.72447 2.9205L14.4824 2.42456C14.6892 2.42456 14.5171 2.24981 14.4482 2.22076L12.8276 1.22914C12.5171 1.0251 12.1033 0.791411 11.3105 0.849866L1.86197 1.43318C1.5174 1.4621 1.44856 1.60792 1.5858 1.72482L2.93147 2.62884ZM3.51732 4.55365V13.2439C3.51732 13.7109 3.79305 13.8857 4.41367 13.8568L15.1375 13.3316C15.7584 13.3027 15.8276 12.9813 15.8276 12.602V3.97009C15.8276 3.5913 15.6555 3.38703 15.2754 3.41618L4.06881 3.97009C3.65526 3.9995 3.51732 4.1746 3.51732 4.55365ZM14.1039 5.01981C14.1727 5.28255 14.1039 5.54503 13.7929 5.57456L13.2762 5.66169V12.0773C12.8276 12.2814 12.4139 12.3981 12.0692 12.3981C11.5173 12.3981 11.3791 12.2522 10.9656 11.815L7.58586 7.324V11.6692L8.65533 11.8734C8.65533 11.8734 8.65533 12.3981 7.79249 12.3981L5.41377 12.5149C5.34467 12.3981 5.41377 12.1068 5.65505 12.0483L6.27579 11.9028V6.15763L5.41392 6.09918C5.3448 5.83644 5.51695 5.45766 6.00004 5.42825L8.55188 5.28266L12.0692 9.83211V5.80751L11.1724 5.72039C11.1036 5.39921 11.3791 5.16599 11.7239 5.13707L14.1039 5.01981ZM1.06865 0.645822L10.8967 0.0332313C12.1036 -0.0543852 12.4141 0.00430475 13.1727 0.470712L16.3098 2.33706C16.8275 2.65801 17 2.74538 17 3.09525V13.3316C17 13.973 16.7239 14.3524 15.7586 14.4104L4.3454 14.9939C3.62077 15.0231 3.2759 14.9357 2.89642 14.5271L0.586124 11.99C0.172148 11.523 0 11.1736 0 10.7648V1.66614C0 1.14152 0.276167 0.703922 1.06865 0.645822Z" fill="white"/>
</svg>
